# xmcd CD database file
#
# Track frame offsets:
#	150
#	14812
#	29287
#	45487
#	64162
#	82837
#	100837
#	116062
#	143137
#	156037
#	170137
#
# Disc length: 2445 seconds
#
# Revision: 0
# Processed by: cddbd v1.5.1PL0 Copyright (c) Steve Scherf et al.
# Submitted via: CDex 1.51
#
DISCID=8e098b0b
DTITLE=Roland Kirk - Gifts and Messages
DYEAR=1900
DGENRE=Jazz
TTITLE0=The Things i Love
TTITLE1=Petite Fleur
TTITLE2=Hip Chops
TTITLE3=Gifts and Messages
TTITLE4=Vertigo Ro
TTITLE5=March On, Swan Lake
TTITLE6=My Heart At Thy Sweet Voice
TTITLE7=Tears Sent By you
TTITLE8=Where Does The Blame Lie?
TTITLE9=Blues for C&T
TTITLE10=Jive Elephant
EXTD=
EXTT0=
EXTT1=
EXTT2=
EXTT3=
EXTT4=
EXTT5=
EXTT6=
EXTT7=
EXTT8=
EXTT9=
EXTT10=
PLAYORDER=
